<svg xmlns="http://www.w3.org/2000/svg" viewBox="0 0 100 100" width="100%" height="100%">
  <rect width="100" height="100" rx="22" fill="#2e1065"/>
  <path fill="#c084fc" d="M 72 18 C 72 12 78 8 83 13 C 88 8 94 12 94 18 C 94 26 83 34 83 36 C 83 34 72 26 72 18 Z" transform="scale(0.6) translate(15, 5)"/>
  <!-- Open Book & Floral Icon -->
  <g transform="translate(0, 5) scale(0.5)">
    <!-- Book Pages -->
    <path stroke="#e9d5ff" stroke-width="5" stroke-linecap="round" fill="none" d="M 20 130 C 70 110, 95 120, 100 125 C 105 120, 130 110, 180 130 L 180 150 C 130 130, 105 140, 100 145 C 95 140, 70 130, 20 150 Z" />
    <path stroke="#e9d5ff" stroke-width="5" stroke-linecap="round" fill="none" d="M 100 125 L 100 145" />
    <!-- Stems and Flowers -->
    <path stroke="#c084fc" stroke-width="4" stroke-linecap="round" fill="none" d="M 100 125 Q 100 80 100 50" />
    <path stroke="#c084fc" stroke-width="4" stroke-linecap="round" fill="none" d="M 100 100 Q 75 80 55 60" />
    <path stroke="#c084fc" stroke-width="4" stroke-linecap="round" fill="none" d="M 100 100 Q 125 80 145 60" />
    <path fill="#f3e8ff" d="M 90 50 C 90 35, 95 30, 100 30 C 105 30, 110 35, 110 50 C 105 48, 102 54, 100 58 C 98 54, 95 48, 90 50 Z" />
    <path fill="#c084fc" d="M 47 60 C 43 48, 51 42, 57 46 C 61 48, 59 56, 55 62 Z" />
    <path fill="#c084fc" d="M 153 60 C 157 48, 149 42, 143 46 C 139 48, 141 56, 145 62 Z" />
  </g>
</svg>
